<?xml version="1.0" encoding="UTF-8" standalone="no"?>
<svg width="512" xmlns="http://www.w3.org/2000/svg" xmlns:xlink="http://www.w3.org/1999/xlink" height="512">
 <defs>
  <clipPath id="clipPath3879" clipPathUnits="userSpaceOnUse">
   <path id="path3881" opacity=".71" stroke-linejoin="round" d="m226.97 126.12c-8.0832 0.21161-17.393 1.5748-25.52 4.1521-0.49464 1.4011-0.75375 2.8537-0.75375 4.3339 0 12.488 18.444 22.62 41.169 22.62 22.414 0 40.661-9.8655 41.157-22.117-1.9259 1.6063-3.8222 2.7203-5.5754 3.2015-11.03 3.0276-33.517-0.78935-37.711-2.4745-4.367-1.7545-7.8317-2.9529-12.766-9.7163z" stroke="#ef71ec" stroke-linecap="round" stroke-width=".828" fill="none"/>
  </clipPath>
  <filter id="filter3636" y="-.14442" width="1.1929" height="1.2888" x="-.096467">
   <feGaussianBlur id="feGaussianBlur3638" stdDeviation="7.354987"/>
  </filter>
  <filter id="filter3848" y="-.80763" width="1.8197" height="2.6153" x="-.40984">
   <feGaussianBlur id="feGaussianBlur3850" stdDeviation="5.778783"/>
  </filter>
  <filter id="filter3935">
   <feGaussianBlur id="feGaussianBlur3937" stdDeviation="6.50558"/>
  </filter>
  <filter id="filter3959" y="-.13110" width="1.105" height="1.2622" x="-.052524">
   <feGaussianBlur id="feGaussianBlur3961" stdDeviation="9.832589"/>
  </filter>
  <linearGradient id="linearGradient3672" y2="-.033056" xlink:href="#linearGradient3664" x2=".52004" y1=".84268" x1=".47530"/>
  <linearGradient id="linearGradient3670" y2=".015322" xlink:href="#linearGradient3664" x2=".44408" y1=".97587" x1=".41516"/>
  <linearGradient id="linearGradient3664">
   <stop id="stop3666" stop-color="#1c1814" offset="0"/>
   <stop id="stop3668" stop-color="#563e2c" offset="1"/>
  </linearGradient>
  <radialGradient id="radialGradient3642" gradientUnits="userSpaceOnUse" cy="285.82" cx="250.9" gradientTransform="matrix(1.1256 .065953 -.036613 .45050 -29.878 154.99)" r="176.1">
   <stop id="stop3177" stop-color="#7c583d" offset="0"/>
   <stop id="stop3179" stop-color="#3d2b17" offset="1"/>
  </radialGradient>
  <radialGradient id="radialGradient3586" gradientUnits="userSpaceOnUse" cy="213.13" cx="230.38" gradientTransform="matrix(1.3898 .13083 -.087968 .67371 -72.449 43.466)" r="134.67">
   <stop id="stop3574" stop-color="#63452e" offset="0"/>
   <stop id="stop3576" stop-color="#684e36" offset=".48238"/>
   <stop id="stop3578" stop-color="#342411" offset="1"/>
  </radialGradient>
 </defs>
 <g stroke-linejoin="round" stroke-linecap="round" stroke-opacity=".958" stroke-width="3.466">
  <path id="path3157" d="m199.76 208.29c-56.692 0-121.19 11.862-156.26 42.87-34.511 30.512-22.509 108.81 11.313 135.99 34.137 27.433 109.3 48.54 196.36 50.207 87.052 1.667 158.16-6.999 208.22-50.207 50.058-43.208 33.268-133.34-20.855-156.91l-238.77-21.95z" fill-rule="evenodd" stroke="url(#linearGradient3670)" fill="url(#radialGradient3642)"/>
  <path id="path3155" fill="url(#radialGradient3586)" stroke="url(#linearGradient3672)" d="m209.76 148.27c-43.643 0-95.16 13.039-115.29 32.918-20.524 20.265-26.518 71.788 4.6803 96.511 31.659 25.088 80.998 38.238 148.08 37.734 67.043-0.50299 123.62-6.802 163.37-37.734 39.746-30.931 19.657-95.474-28.718-121.27-49.236-26.254-163.32-37.006-142.56-106.29-59.764 59.669-39.685 109.78 3.432 119.41"/>
 </g>
 <path id="path3181" opacity=".349" d="m121.05 195.66s86.683 29.249 141.67 22.141c55.056-7.116 88.894-24.212 81.574-41.823-7.444-17.912-152.13-27.59-114.15-108.03 1.023 70.035 150.61 85.868 161.58 111.72 9.472 22.337-89.16 52.712-136.38 52.368-44.596-0.325-98.452-6.061-134.28-36.375z" fill-rule="evenodd" filter="url(#filter3636)" fill="#b59b80"/>
 <g stroke-linejoin="round" stroke-linecap="round">
  <path id="path3694" opacity=".409" style="clip-path:url(#clipPath3879)" d="m251.5 168.66a44.194 19.193 0 1 1 -88.389 0 44.194 19.193 0 1 1 88.389 0z" stroke-opacity=".958" filter="url(#filter3848)" stroke-width="5"/>
  <g fill="none">
   <path id="path3883" d="m444.43 246.71l27.142 39.286-34.285-5.714 37.857 50.714-72.143-37.143 40 92.143-65-65.714 7.143 82.143-57.857-73.572-12.857 92.857-52.143-94.285-20.715 92.143-36.428-82.858-37.143 75-10-81.428-65.714 56.428 33.571-79.285-83.571 35.714 49.286-56.429-60.714 3.572 25-27.143-11.428-2.143" filter="url(#filter3959)" stroke="#30241e" stroke-dasharray="29.99999889,29.99999889" stroke-width="5"/>
   <path id="path3897" d="m160.14 163.14l-35 112.86 2.857-97.143-42.857 49.286 96.428-58.572 4.286 129.29-38.571-45 62.143-90.714 4.285 136.43 50.715-13.571-41.429-97.143 94.286 105.71-65.715-115 142.14 94.286 16.429-32.143-41.429-70.714-25.714 95.714-13.571-62.857-50.715-25 69.286-12.143-95-5.714 65-17.857-42.857-16.429-45 24.286-17.857-35.714 28.571-6.4285c-3.15-5.9524-23.533-9.0477-16.428-15l5.714-16.428" filter="url(#filter3935)" stroke="#2f211c" stroke-dasharray="23.99999911,23.99999911" stroke-width="4"/>
  </g>
 </g>
</svg>
